<svg width="380" height="266" viewBox="0 0 380 266" fill="none" xmlns="http://www.w3.org/2000/svg">
<path d="M46.9222 167.057C47.1666 186.176 50.8324 200.755 57.9196 210.792C65.2512 220.591 75.6376 225.491 89.0789 225.491C103.742 225.491 114.495 220.95 121.338 211.868C128.425 202.547 131.969 188.686 131.969 170.283V5.73584H177.425V170.283C177.425 200.157 169.726 223.579 154.33 240.547C138.934 257.516 117.183 266 89.0789 266C71.2387 266 55.5979 262.057 42.1567 254.17C28.7154 246.283 18.329 235.17 10.9974 220.83C3.6658 206.491 0 189.642 0 170.283L46.9222 167.057Z" fill="black" fill-opacity="0.15"/>
<path d="M236.667 173.509C238.622 184.025 242.044 193.107 246.932 200.755C251.819 208.164 258.173 213.899 265.994 217.962C273.814 222.025 282.979 224.057 293.487 224.057C301.796 224.057 309.006 222.742 315.115 220.113C321.225 217.484 325.868 213.66 329.045 208.642C332.467 203.623 334.055 197.648 333.811 190.717C333.811 180.679 329.168 172.434 319.881 165.981C310.839 159.289 296.664 153.553 277.358 148.774C251.941 143.038 232.024 134.195 217.605 122.245C203.431 110.057 196.344 94.4025 196.344 75.283C196.344 59.9874 200.009 46.7233 207.341 35.4906C214.673 24.0189 224.815 15.2956 237.767 9.32074C250.964 3.10691 266.238 0 283.59 0C300.452 0 315.604 3.46541 329.045 10.3962C342.487 17.327 353.362 27.1258 361.671 39.7925C369.98 52.4591 375.112 66.9182 377.067 83.1698L330.878 85.6792C329.901 76.5975 327.09 68.7107 322.447 62.0189C318.048 55.088 312.427 49.8302 305.584 46.2453C298.742 42.4214 290.921 40.5094 282.123 40.5094C269.904 40.5094 260.006 43.8553 252.43 50.5472C245.099 57 241.799 65.4843 242.533 76C242.777 82.9308 245.099 88.6667 249.498 93.2075C254.141 97.7484 259.762 101.333 266.36 103.962C273.203 106.591 282.245 109.34 293.487 112.208C294.465 112.208 295.442 112.327 296.42 112.566C321.836 118.541 342.12 128.101 357.272 141.245C372.424 154.151 380 170.044 380 188.925C380 204.459 376.09 217.962 368.269 229.434C360.449 240.906 349.818 249.629 336.377 255.604C323.18 261.579 308.273 264.566 291.654 264.566C272.837 264.566 256.096 260.981 241.433 253.811C226.77 246.403 214.917 236.126 205.875 222.981C197.077 209.836 192.067 194.421 190.845 176.736L236.667 173.509Z" fill="black" fill-opacity="0.15"/>
</svg>
