<svg width="109" height="25" viewBox="0 0 109 25" fill="none" xmlns="http://www.w3.org/2000/svg">
<path d="M11.3409 0.727272H16.2045V16.9545C16.2045 18.4545 15.8674 19.7576 15.1932 20.8636C14.5265 21.9697 13.5985 22.822 12.4091 23.4205C11.2197 24.0189 9.83712 24.3182 8.26136 24.3182C6.85985 24.3182 5.58712 24.072 4.44318 23.5795C3.30682 23.0795 2.4053 22.322 1.73864 21.3068C1.07197 20.2841 0.742424 19 0.75 17.4545H5.64773C5.66288 18.0682 5.78788 18.5947 6.02273 19.0341C6.26515 19.4659 6.5947 19.7992 7.01136 20.0341C7.43561 20.2614 7.93561 20.375 8.51136 20.375C9.11742 20.375 9.62879 20.2462 10.0455 19.9886C10.4697 19.7235 10.7917 19.3371 11.0114 18.8295C11.2311 18.322 11.3409 17.697 11.3409 16.9545V0.727272ZM32.8977 7.42045C32.8068 6.50379 32.4167 5.79167 31.7273 5.28409C31.0379 4.77651 30.1023 4.52273 28.9205 4.52273C28.1174 4.52273 27.4394 4.63636 26.8864 4.86364C26.3333 5.08333 25.9091 5.39015 25.6136 5.78409C25.3258 6.17803 25.1818 6.625 25.1818 7.125C25.1667 7.54167 25.2538 7.9053 25.4432 8.21591C25.6402 8.52652 25.9091 8.79545 26.25 9.02273C26.5909 9.24242 26.9848 9.43561 27.4318 9.60227C27.8788 9.76136 28.3561 9.89773 28.8636 10.0114L30.9545 10.5114C31.9697 10.7386 32.9015 11.0417 33.75 11.4205C34.5985 11.7992 35.3333 12.2652 35.9545 12.8182C36.5758 13.3712 37.0568 14.0227 37.3977 14.7727C37.7462 15.5227 37.9242 16.3826 37.9318 17.3523C37.9242 18.7765 37.5606 20.0114 36.8409 21.0568C36.1288 22.0947 35.0985 22.9015 33.75 23.4773C32.4091 24.0455 30.7917 24.3295 28.8977 24.3295C27.0189 24.3295 25.3826 24.0417 23.9886 23.4659C22.6023 22.8902 21.5189 22.0379 20.7386 20.9091C19.9659 19.7727 19.5606 18.3674 19.5227 16.6932H24.2841C24.3371 17.4735 24.5606 18.125 24.9545 18.6477C25.3561 19.1629 25.8902 19.553 26.5568 19.8182C27.2311 20.0758 27.9924 20.2045 28.8409 20.2045C29.6742 20.2045 30.3977 20.0833 31.0114 19.8409C31.6326 19.5985 32.1136 19.2614 32.4545 18.8295C32.7955 18.3977 32.9659 17.9015 32.9659 17.3409C32.9659 16.8182 32.8106 16.3788 32.5 16.0227C32.197 15.6667 31.75 15.3636 31.1591 15.1136C30.5758 14.8636 29.8598 14.6364 29.0114 14.4318L26.4773 13.7955C24.5152 13.3182 22.9659 12.572 21.8295 11.5568C20.6932 10.5417 20.1288 9.17424 20.1364 7.45454C20.1288 6.04545 20.5038 4.81439 21.2614 3.76136C22.0265 2.70833 23.0758 1.88636 24.4091 1.29545C25.7424 0.704545 27.2576 0.40909 28.9545 0.40909C30.6818 0.40909 32.1894 0.704545 33.4773 1.29545C34.7727 1.88636 35.7803 2.70833 36.5 3.76136C37.2197 4.81439 37.5909 6.03409 37.6136 7.42045H32.8977Z" fill="url(#paint0_linear_251_573)"/>
<path d="M52.0256 10.4432V14.2841H41.4119V10.4432H52.0256ZM59.7898 0.727272L65.4148 18.4091H65.6307L71.267 0.727272H76.7216L68.6989 24H62.358L54.3239 0.727272H59.7898ZM84.4432 0.727272V24H79.5227V0.727272H84.4432ZM93.1051 0.727272L97.7983 8.65909H97.9801L102.696 0.727272H108.253L101.151 12.3636L108.412 24H102.753L97.9801 16.0568H97.7983L93.0256 24H87.3892L94.6733 12.3636L87.5256 0.727272H93.1051Z" fill="#151515"/>
<defs>
<linearGradient id="paint0_linear_251_573" x1="55" y1="-12" x2="1.82296" y2="90.2792" gradientUnits="userSpaceOnUse">
<stop stop-color="#FFDC00"/>
<stop offset="1" stop-color="#ABABAB"/>
</linearGradient>
</defs>
</svg>
