<svg width="88" height="64" viewBox="0 0 88 64" fill="none" xmlns="http://www.w3.org/2000/svg">
<path d="M24.8808 5.6792L22.7839 13.0026L20.5586 5.6792H18.3333L16.0483 13.0026L13.9561 5.6658H11.4922L14.8829 16.3026H17.177L19.4436 9.15782L21.6873 16.3026H23.9814L27.3675 5.6658L24.8808 5.6792ZM33.4056 16.575C35.5025 16.575 37.0763 15.8069 38.1362 14.2574L36.2136 13.15C35.9012 13.5802 35.4819 13.9266 34.9951 14.1569C34.5082 14.3872 33.9693 14.4939 33.4286 14.4673C31.6392 14.4673 30.3178 13.5742 29.9737 11.9577H38.5675C38.6211 11.6417 38.6503 11.3223 38.6547 11.0021C38.6869 9.53282 38.1364 8.10793 37.1175 7.02331C36.631 6.493 36.0319 6.07184 35.3618 5.78889C34.6916 5.50594 33.9662 5.36796 33.236 5.38447C32.4737 5.35698 31.7142 5.4868 31.0072 5.76542C30.3003 6.04403 29.6618 6.4651 29.134 7.00098C28.0988 8.08894 27.5238 9.51706 27.5238 10.9998C27.5238 12.4826 28.0988 13.9107 29.134 14.9987C29.6989 15.5296 30.369 15.9432 31.1034 16.2142C31.8377 16.4852 32.621 16.6079 33.4056 16.575ZM33.213 7.46986C34.7455 7.46986 35.9659 8.36295 36.3009 10.0866H29.9554C30.071 9.34181 30.4651 8.66475 31.062 8.18517C31.659 7.7056 32.4167 7.45725 33.19 7.48772L33.213 7.46986ZM18.5994 24.4387C17.8659 24.4043 17.1352 24.5498 16.4746 24.8619C15.814 25.1741 15.2446 25.6428 14.8187 26.2249V20.4644H12.4879V35.3525H14.8187V33.8207C15.2425 34.4051 15.8115 34.8754 16.4727 35.1878C17.1338 35.5001 17.8655 35.6444 18.5994 35.607C19.3141 35.6147 20.0224 35.4746 20.6774 35.1959C21.3323 34.9173 21.9189 34.5064 22.3985 33.9904C23.4112 32.8997 23.9719 31.4818 23.9719 30.0117C23.9719 28.5416 23.4112 27.1238 22.3985 26.0329C21.9126 25.5215 21.3206 25.1164 20.6617 24.8447C20.0027 24.5729 19.292 24.4407 18.5765 24.4567L18.5994 24.4387ZM20.6687 32.4767C20.0132 33.0898 19.1393 33.4323 18.2301 33.4323C17.3209 33.4323 16.4469 33.0898 15.7914 32.4767C15.4709 32.1517 15.2199 31.7682 15.053 31.3481C14.886 30.928 14.8063 30.4798 14.8187 30.0296C14.8042 29.5824 14.8829 29.137 15.0501 28.7203C15.2173 28.3036 15.4694 27.9242 15.7914 27.6048C16.4395 26.9778 17.3163 26.626 18.2301 26.626C19.1439 26.626 20.0205 26.9778 20.6687 27.6048C20.9906 27.9242 21.2428 28.3036 21.41 28.7203C21.5771 29.137 21.6558 29.5824 21.6414 30.0296C21.6532 30.4843 21.5711 30.9368 21.4001 31.3602C21.2291 31.7836 20.9726 32.1692 20.6457 32.4945L20.6687 32.4767ZM36.0623 30.0519C36.0944 28.5835 35.5457 27.1592 34.5298 26.0732C34.0422 25.543 33.4422 25.1224 32.7713 24.8402C32.1003 24.558 31.3743 24.421 30.6436 24.4387C29.8817 24.411 29.1225 24.5403 28.4155 24.818C27.7087 25.0959 27.0701 25.5159 26.5416 26.0508C25.5095 27.1402 24.9364 28.5678 24.9364 30.0497C24.9364 31.5315 25.5095 32.959 26.5416 34.0485C27.1051 34.5776 27.773 34.9901 28.5048 35.261C29.2366 35.5319 30.0171 35.6556 30.7995 35.6249C32.8917 35.6249 34.4702 34.8568 35.5254 33.3027L33.6029 32.1998C33.2922 32.6319 32.8734 32.9796 32.386 33.2102C31.8987 33.4407 31.359 33.5464 30.8179 33.5171C29.0285 33.5171 27.7117 32.624 27.363 31.0075H35.9568C36.008 30.6973 36.0356 30.3839 36.0393 30.0697L36.0623 30.0519ZM27.3447 29.1365C27.4566 28.3844 27.8522 27.6998 28.4544 27.2161C29.0566 26.7324 29.8223 26.4841 30.6023 26.5197C32.1348 26.5197 33.3552 27.4127 33.6901 29.1365H27.3447ZM37.5351 35.3659H39.8659V19.8393H37.5351V35.3659ZM44.2294 22.7106C44.3711 22.5766 44.4839 22.4162 44.5608 22.239C44.6378 22.0618 44.6775 21.8715 44.6775 21.679C44.6775 21.4868 44.6378 21.2963 44.5608 21.1191C44.4839 20.9419 44.3711 20.7816 44.2294 20.6475C44.0941 20.5062 43.9304 20.3936 43.7485 20.3165C43.5665 20.2395 43.3702 20.1996 43.1718 20.1996C42.9734 20.1996 42.777 20.2395 42.595 20.3165C42.4131 20.3936 42.2494 20.5062 42.1141 20.6475C41.8346 20.9219 41.6776 21.2927 41.6776 21.679C41.6776 22.0654 41.8346 22.4363 42.1141 22.7106C42.2506 22.8523 42.4155 22.9652 42.5986 23.0424C42.7817 23.1197 42.9791 23.1594 43.1787 23.1594C43.3782 23.1594 43.5756 23.1197 43.7587 23.0424C43.9418 22.9652 44.1067 22.8523 44.2431 22.7106H44.2294ZM42.027 35.3659H44.3579V24.729H42.027V35.3659ZM51.6118 24.4567C50.8501 24.4292 50.0909 24.5585 49.384 24.8363C48.6771 25.1141 48.0386 25.534 47.51 26.0687C46.4758 27.1571 45.9014 28.5851 45.9014 30.0675C45.9014 31.5499 46.4758 32.9779 47.51 34.0663C48.0723 34.5957 48.7393 35.0084 49.4704 35.2794C50.2015 35.5503 50.9816 35.6739 51.7633 35.6427C53.8555 35.6427 55.4339 34.8746 56.4892 33.3207L54.6034 32.2042C54.2927 32.6363 53.8739 32.9841 53.3864 33.2146C52.8991 33.4451 52.3593 33.5508 51.8183 33.5216C50.029 33.5216 48.7121 32.6285 48.3633 31.012H56.9571C57.0108 30.696 57.0399 30.3766 57.0443 30.0564C57.0764 28.5879 56.5279 27.1637 55.5118 26.0776C55.0231 25.55 54.4225 25.1319 53.7515 24.8519C53.0806 24.5722 52.3553 24.4372 51.6256 24.4567H51.6118ZM48.3312 29.1543C48.4433 28.4022 48.8389 27.7177 49.4411 27.2339C50.0433 26.7502 50.8089 26.5019 51.5888 26.5375C53.1213 26.5375 54.3418 27.4307 54.6768 29.1543H48.3312ZM65.427 24.729L62.4264 32.8115L59.4027 24.729H56.8562L61.0682 35.3659H63.7661L67.9735 24.729H65.427ZM78.9853 30.0876C79.0174 28.6193 78.4688 27.1949 77.4529 26.1088C76.9654 25.5788 76.3654 25.1581 75.6944 24.8759C75.0234 24.5937 74.2973 24.4568 73.5666 24.4745C72.8048 24.447 72.0456 24.5764 71.3388 24.8541C70.632 25.132 69.9933 25.5519 69.4647 26.0865C68.4337 27.1777 67.8634 28.6073 67.8677 30.0897C67.8719 31.5722 68.4504 32.9987 69.4877 34.0843C70.05 34.6136 70.717 35.0262 71.4481 35.2972C72.1793 35.5682 72.9594 35.6919 73.741 35.6605C75.8333 35.6605 77.4115 34.8925 78.4668 33.3385L76.5444 32.2356C76.235 32.6629 75.8195 33.0071 75.3365 33.2359C74.8535 33.4647 74.3187 33.5706 73.7822 33.5439C71.9929 33.5439 70.6761 32.6509 70.3273 31.0344H78.9211C78.9722 30.7152 78.9982 30.3927 78.999 30.0697L78.9853 30.0876ZM70.2677 29.1723C70.3797 28.4201 70.7753 27.7355 71.3774 27.2518C71.9797 26.768 72.7453 26.5198 73.5253 26.5554C75.0578 26.5554 76.2783 27.4485 76.6132 29.1723H70.2677ZM18.1085 43.5244C16.576 43.5244 15.4794 44.0736 14.7636 45.1587V39.5277H12.4328V54.4156H14.7636V48.7266C14.7636 46.6636 15.8648 45.6633 17.5166 45.6633C19.0032 45.6633 19.9346 46.5563 19.9346 48.1327V54.4291H22.2654V47.8871C22.2883 45.1542 20.6274 43.5064 18.1406 43.5064L18.1085 43.5244ZM31.4969 49.4991C31.4969 51.5622 30.3957 52.5624 28.744 52.5624C27.2528 52.5624 26.326 51.6694 26.326 50.093V43.7967H23.9952V50.3297C23.9952 53.0492 25.6562 54.7104 28.1246 54.7104C29.6571 54.7104 30.7583 54.1566 31.4741 53.0716V54.4335H33.8644V43.7789H31.5337L31.4969 49.4991ZM42.1141 43.5244C41.3814 43.4907 40.6517 43.6365 39.992 43.9486C39.3322 44.2606 38.7635 44.7289 38.3381 45.3104V39.5277H36.0072V54.4156H38.3381V52.8841C38.7588 53.4718 39.3259 53.946 39.9863 54.2623C40.6468 54.5786 41.379 54.7267 42.1141 54.6925C42.8292 54.7023 43.5381 54.563 44.1934 54.2843C44.8486 54.0055 45.435 53.5935 45.9132 53.076C46.9288 51.9866 47.4914 50.5682 47.4914 49.0973C47.4914 47.6263 46.9288 46.2079 45.9132 45.1184C45.4385 44.6056 44.857 44.1966 44.2077 43.9187C43.5583 43.6408 42.8557 43.5002 42.1464 43.5064L42.1141 43.5244ZM44.1881 51.5622C43.5326 52.1754 42.6587 52.5179 41.7494 52.5179C40.8402 52.5179 39.9663 52.1754 39.3107 51.5622C38.9902 51.2373 38.7393 50.8537 38.5723 50.4336C38.4053 50.0135 38.3257 49.5653 38.3381 49.1151C38.3236 48.668 38.4023 48.2227 38.5695 47.8058C38.7366 47.3891 38.9888 47.0097 39.3107 46.6903C39.9589 46.0635 40.8357 45.7115 41.7494 45.7115C42.6632 45.7115 43.5399 46.0635 44.1881 46.6903C44.51 47.0097 44.7621 47.3891 44.9294 47.8058C45.0965 48.2227 45.1752 48.668 45.1608 49.1151C45.1894 50.014 44.8512 50.8873 44.2202 51.5443L44.1881 51.5622Z" fill="black"/>
</svg>
